<?xml version="1.0" encoding="UTF-8" standalone="no"?>
<!DOCTYPE svg PUBLIC "-//W3C//DTD SVG 1.1//EN" "http://www.w3.org/Graphics/SVG/1.1/DTD/svg11.dtd">
<svg width="100%" height="100%" viewBox="0 0 2692 2105" version="1.1" xmlns="http://www.w3.org/2000/svg" xmlns:xlink="http://www.w3.org/1999/xlink" xml:space="preserve" xmlns:serif="http://www.serif.com/" style="fill-rule:evenodd;clip-rule:evenodd;stroke-linejoin:round;stroke-miterlimit:2;">
    <g transform="matrix(4.16667,0,0,4.16667,0,0)">
        <path d="M542.637,131.577C542.676,271.985 542.696,363.711 542.715,406.756C542.715,411.904 542.539,417.581 542.167,423.825C540.269,456.319 523.141,487.892 491.293,498.795C477.571,503.493 463.399,505.529 448.797,504.883C436.386,504.335 425.503,500.224 420.1,488.558C413.328,473.877 420.727,458.981 437.013,456.377C442.552,455.477 450.284,456.925 456.548,455.908C472.149,453.363 481.936,443.83 485.871,427.329C487.417,420.889 488.122,414.038 488.024,406.775C487.789,389.589 487.75,300.231 487.926,138.721C487.926,137.234 488.455,133.632 488.2,131.537C488.142,130.892 487.77,130.539 487.104,130.52C482.543,130.343 479.783,130.206 478.824,130.089C471.875,129.286 466.257,125.998 461.97,120.243C452.32,107.304 457.273,88.298 473.519,84.109C475.222,83.659 479.568,83.404 486.536,83.345C487.222,83.345 487.574,82.993 487.554,82.308C487.241,58.349 493.564,37.423 510.183,21.137C517.523,13.934 526.273,8.708 536.432,5.439C549.762,1.132 569.259,-2.744 582.158,2.6C600.734,10.273 604.141,35.603 585.78,45.743C580.514,48.64 571.686,48.072 566.459,48.855C550.545,51.184 542.676,60.384 542.833,76.455C542.833,76.573 542.794,77.551 542.715,79.391C542.657,80.468 542.774,81.544 543.029,82.601C543.185,83.247 543.596,83.58 544.262,83.6C551.485,83.737 556.574,83.835 559.491,83.874C572.958,84.05 580.22,83.208 588.148,92.271C592.631,97.4 594.099,103.507 592.591,110.573C589.831,123.453 581.649,129.932 568.045,130.03C562.231,130.069 554.127,130.206 543.733,130.441C542.99,130.461 542.618,130.833 542.637,131.577Z" style="fill:rgb(1,1,1);fill-rule:nonzero;"/>
        <path d="M196.461,148.606C175.849,134.258 152.536,129.619 126.521,134.689C84.416,142.871 63.432,178.614 57.54,218.86C49.338,274.823 66.466,347.954 133.039,355.842C151.087,357.976 167.823,355.275 183.248,347.719C199.397,339.791 210.359,327.009 216.133,309.353C219.05,300.466 220.616,291.56 220.851,282.653C221.223,268.266 221.321,243.249 221.125,207.585C221.066,198.248 220.616,190.848 219.735,185.426C217.269,169.982 209.517,157.709 196.461,148.606ZM4.277,201.282L15.592,166.987C34.52,124.96 71.673,94.973 116.812,86.712C153.945,79.939 188.298,85.929 219.892,104.701C220.479,105.053 221.242,104.622 221.242,103.937C221.34,68.664 221.458,45.645 221.595,34.859C221.693,27.714 224.453,21.137 229.894,15.128C234.455,10.078 240.425,7.2 247.785,6.515C259.334,5.419 268.084,10.763 274.055,22.566C275.151,24.759 275.64,30.318 275.542,39.244C275.288,61.109 275.17,82.836 275.209,104.407C275.209,105.601 275.718,105.875 276.736,105.268C306.842,87.065 339.629,80.644 375.118,86.027C390.171,88.317 404.284,93.074 417.438,100.336C427.167,105.699 435.016,112.159 430.847,124.843C427.421,135.335 421.118,143.674 411.938,149.879C408.61,152.11 406.261,152.169 402.659,149.996C394.007,144.731 388.194,141.344 385.238,139.837C366.701,130.265 338.2,131.048 320.016,138.056C294.295,147.961 278.713,168.357 276.404,195.566C275.973,200.675 275.738,205.745 275.679,210.814C275.66,211.323 276.09,211.754 276.619,211.754C350.278,211.656 398.862,211.519 422.371,211.323C435.427,211.206 443.942,217.039 447.916,228.823C450.402,236.164 449.286,243.387 444.608,250.512C440.106,257.343 433.294,260.77 424.172,260.788C356.737,260.985 307.41,261.063 276.149,261.004C275.816,261.004 275.542,261.279 275.542,261.61C275.601,285.217 275.209,309.314 290.204,329.182C302.046,344.861 318.469,353.807 339.473,355.979C355.113,357.604 369.911,355.999 383.848,351.184C389.036,349.383 396.024,346.447 404.813,342.375C406.418,341.631 408.277,341.807 409.726,342.806C420.355,350.264 427.637,360.11 431.532,372.344C432.843,376.474 431.121,379.332 428.126,381.877C422.391,386.731 417.477,390.117 413.386,392.016C375.823,409.496 337.378,411.356 298.092,397.634C277.95,390.607 261.605,378.294 249.097,360.736C248.412,359.777 247.003,359.777 246.317,360.716C234.573,376.728 219.461,388.434 200.963,395.814C141.3,419.655 69.656,403.213 31.251,350.831C21.209,337.109 13.556,321.156 8.329,302.952C-1.203,269.773 -2.553,235.87 4.277,201.282Z" style="fill:rgb(1,1,1);fill-rule:nonzero;"/>
        <path d="M613.341,226.318C618.469,231.094 626.24,234.48 635.068,239.021C641.019,242.095 647.674,249.337 644.445,256.521C642.154,261.63 634.951,267.209 629.352,263.059C622.267,257.793 614.045,252.391 604.669,246.851C599.09,243.563 592.591,238.571 590.243,232.307C583.294,213.751 596.409,197.347 614.535,194.294C622.932,192.865 631.564,193.745 640.471,196.897C641.117,197.112 641.43,197.563 641.43,198.248L641.43,218.37C641.43,219.545 640.941,219.819 639.942,219.173C632.68,214.436 625.203,213.32 617.49,215.826C614.123,216.922 609.504,222.735 613.341,226.318Z" style="fill:rgb(1,1,1);fill-rule:nonzero;"/>
        <path d="M620.015,309.744C622.208,304.949 615.435,299.644 611.618,297.628C607.135,295.259 601.224,291.873 593.923,287.429C584.331,281.616 582.882,273.668 589.577,263.627C590.634,262.041 592.611,261.356 594.431,261.964C595.625,262.354 597.152,263.157 599.012,264.351C602.946,266.896 610.6,271.633 621.973,278.582C631.701,284.532 637.926,289.426 640.647,293.282C646.656,301.817 646.167,311.839 639.198,323.329C635.107,330.063 628.08,334.408 618.097,336.385C609.093,338.167 599.834,337.168 590.321,333.41C589.753,333.175 589.342,332.647 589.303,332.04C588.755,325.443 588.814,318.768 589.499,311.995C589.577,311.291 589.969,311.017 590.654,311.173C599.501,313.209 614.535,321.783 620.015,309.744Z" style="fill:rgb(1,1,1);fill-rule:nonzero;"/>
    </g>
</svg>
